PathFileType	4	(X/Y/Z)	./resultDataOpenSim/trcMotMarkerGrf/sub10/qtm-01-05.trc
DataRate	CameraRate	NumFrames	NumMarkers	Units	OrigDataRate	OrigDataStartFrame	OrigNumFrames
250.000000	250.000000	11	24	m	250.000000	244	487
Frame#	Time	L.Toe.Tip			R.Toe.Tip			L.Ankle.Lat			R.Ankle.Lat			L.Ankle.Med			R.Ankle.Med			L.Heel			R.Heel			L.Knee.Lat			R.Knee.Lat			L.Knee.Med			R.Knee.Med			L.Thigh.Upper			R.Thigh.Upper			L.ASIS			R.ASIS			V.Sacral			L.Acromium			R.Acromium			C7			L.Elbow			R.Elbow			L.Wrist.Lat			R.Wrist.Lat
		X1	Y1	Z1	X2	Y2	Z2	X3	Y3	Z3	X4	Y4	Z4	X5	Y5	Z5	X6	Y6	Z6	X7	Y7	Z7	X8	Y8	Z8	X9	Y9	Z9	X10	Y10	Z10	X11	Y11	Z11	X12	Y12	Z12	X13	Y13	Z13	X14	Y14	Z14	X15	Y15	Z15	X16	Y16	Z16	X17	Y17	Z17	X18	Y18	Z18	X19	Y19	Z19	X20	Y20	Z20	X21	Y21	Z21	X22	Y22	Z22	X23	Y23	Z23	X24	Y24	Z24

244	0.972	0.014751605	0.042181275	-0.1114271	0.29229979	0.063815495	0.041508152	-0.11690805	0.067323675	-0.15446447	0.15168745	0.076734717	0.020818904	-0.11813883	0.093678382	-0.071919785	0.20251857	0.10608087	-0.04664403	-0.18608168	0.041285943	-0.11684148	0.12676863	0.049264493	-0.043023439	-0.031488685	0.44581804	-0.19937092	0.18264307	0.47547254	0.06945493	-0.043918435	0.42832859	-0.076726911	0.23246701	0.49063463	-0.048781153	0.040449101	0.835661	-0.26711982	0.030355297	0.85872676	0.11119616	0.097842314	0.94746386	-0.20151509	0.10055122	0.95427504	0.042317105	-0.086600658	0.95797468	-0.077500219	0.036273066	1.4235217	-0.22440363	-0.0056053894	1.4107446	0.099628247	-0.070555395	1.4444864	-0.078865998	0.0073640045	1.0729384	-0.29215085	-0.090616696	1.0700376	0.12850639	0.16283059	0.91273301	-0.31482127	0.042473819	0.86761692	0.17273679
245	0.976	0.014639425	0.042181386	-0.11146185	0.31167878	0.065270438	0.042268715	-0.11701316	0.067357423	-0.15432079	0.17088172	0.074572469	0.021169093	-0.11805445	0.093707689	-0.071658204	0.22092355	0.1052399	-0.046297611	-0.18618742	0.041419443	-0.11667596	0.14674937	0.04640668	-0.042491545	-0.03032901	0.44551282	-0.19924472	0.18987235	0.4745808	0.069463489	-0.042800994	0.42779725	-0.076784976	0.23871032	0.49015091	-0.049021399	0.043908002	0.83483996	-0.26707621	0.037346102	0.85833968	0.11152664	0.10231615	0.94626573	-0.20199821	0.1071364	0.95351976	0.042072678	-0.081075336	0.95753681	-0.076654127	0.042070246	1.4226761	-0.22462634	1.2675256e-05	1.4099183	0.09942759	-0.064754212	1.4436924	-0.07908515	0.01513081	1.071792	-0.29282946	-0.087043625	1.0699349	0.12841521	0.17336828	0.913716	-0.31421005	0.043627765	0.86617994	0.17313686
246	0.98	0.014622098	0.042198508	-0.11156827	0.33098651	0.066829361	0.042821946	-0.11712323	0.067390896	-0.15415596	0.19006354	0.072665863	0.021561893	-0.11792557	0.093728846	-0.071394118	0.2392012	0.10465053	-0.045950432	-0.18632193	0.04158604	-0.1165203	0.16659568	0.043880562	-0.041775712	-0.02906175	0.44519966	-0.19907366	0.19700997	0.47350477	0.069524618	-0.041486003	0.42729845	-0.07682377	0.24481414	0.4894969	-0.049200811	0.047395302	0.83398136	-0.26722393	0.044094738	0.85777896	0.11171896	0.10687645	0.94504345	-0.20241393	0.11373735	0.95270262	0.041863994	-0.075610081	0.95703618	-0.075794515	0.047851103	1.4217701	-0.22487218	0.0056679283	1.4090219	0.099203901	-0.058957303	1.4428402	-0.079307784	0.022883702	1.0706117	-0.29345788	-0.08347425	1.0697762	0.12830684	0.18413117	0.91467021	-0.31350519	0.044964711	0.8647578	0.17358007
247	0.984	0.014636297	0.042220459	-0.11166324	0.35021599	0.068474307	0.0431503	-0.11721461	0.067430374	-0.15396418	0.20922809	0.071040633	0.022040747	-0.11774096	0.093737813	-0.071161155	0.25734114	0.1043043	-0.045580918	-0.18648841	0.041796858	-0.11627926	0.18629777	0.041677373	-0.040897651	-0.027686277	0.44487809	-0.19886175	0.20403239	0.47225278	0.069623139	-0.039970971	0.42683883	-0.076817856	0.25078094	0.48865509	-0.049333004	0.050933174	0.83308911	-0.26749245	0.050523627	0.85701524	0.11173944	0.11163609	0.94384784	-0.2027038	0.12035014	0.95182478	0.041693515	-0.070208482	0.95647075	-0.074918761	0.053624065	1.4207991	-0.22513416	0.011352258	1.4080595	0.098964243	-0.053165877	1.441929	-0.079534923	0.030621401	1.0693991	-0.29403282	-0.079923599	1.0695565	0.12814464	0.19508027	0.91559511	-0.31271766	0.046545696	0.86336441	0.17410496
248	0.988	0.014650434	0.042234107	-0.11172255	0.36935231	0.070188552	0.043264859	-0.11726748	0.06747956	-0.15373291	0.22834683	0.069726234	0.022636289	-0.11751115	0.09372887	-0.07097685	0.27533518	0.10418345	-0.045159281	-0.18668817	0.042065888	-0.11592289	0.20584595	0.039820264	-0.039947056	-0.026202071	0.44454757	-0.19861303	0.21094907	0.47084299	0.069773255	-0.038301178	0.42642329	-0.076712283	0.2566261	0.4876195	-0.049432988	0.054617336	0.83217906	-0.26770415	0.056919912	0.85614449	0.11171699	0.11657819	0.94270062	-0.20287148	0.12698173	0.95088584	0.041552472	-0.064874142	0.95583847	-0.074024234	0.059413906	1.4197603	-0.2254072	0.01705872	1.4070387	0.098721652	-0.047374392	1.4409569	-0.079766635	0.038342623	1.0681559	-0.29455099	-0.076384052	1.0692747	0.12790261	0.20617688	0.91649018	-0.31185834	0.048274841	0.86197976	0.1746838
249	0.992	0.014667079	0.042227077	-0.11176104	0.38838131	0.07194494	0.043193624	-0.11727718	0.067541106	-0.15347101	0.24736648	0.068728804	0.023355892	-0.11726684	0.093697349	-0.070819574	0.29315509	0.10427943	-0.044664623	-0.18688371	0.042375721	-0.11550188	0.22520623	0.038354792	-0.039004367	-0.024608463	0.44420751	-0.19833148	0.21779835	0.46930244	0.070006688	-0.036539048	0.42606531	-0.07646323	0.26236962	0.4863885	-0.04950711	0.05850953	0.83127845	-0.26772894	0.063666296	0.85529301	0.11183087	0.12151623	0.94156723	-0.20301423	0.13363594	0.94988628	0.041425598	-0.059610805	0.95513717	-0.073108267	0.065240299	1.418655	-0.2256958	0.022776684	1.4059617	0.098478888	-0.041580295	1.4399251	-0.080006939	0.046046051	1.0668836	-0.29500897	-0.072864793	1.0689483	0.1276267	0.21738239	0.91735484	-0.31093805	0.049939225	0.86056106	0.175234
250	0.996	0.014692678	0.042200243	-0.11179174	0.40729049	0.073713966	0.042960364	-0.11725373	0.067617273	-0.15319617	0.26622412	0.06802549	0.024193986	-0.117025	0.093650327	-0.07063277	0.31074491	0.10460698	-0.044097323	-0.18701488	0.042684634	-0.11507511	0.24432028	0.037292608	-0.038067321	-0.022904404	0.44385731	-0.19802101	0.22460803	0.46765415	0.070336331	-0.034728357	0.4257704	-0.076071037	0.26802858	0.484963	-0.049562061	0.062511228	0.83040678	-0.26763273	0.070914753	0.85450505	0.11215735	0.12623619	0.94039085	-0.20324932	0.14031722	0.94883118	0.041301601	-0.05442255	0.95436446	-0.072168123	0.071094235	1.4174906	-0.22600455	0.028501795	1.4048323	0.098228079	-0.035785305	1.4388362	-0.080258927	0.053730292	1.0655836	-0.29540312	-0.069421141	1.0686122	0.12740983	0.22865802	0.91818844	-0.30996758	0.051419386	0.85909055	0.17570968
251	1	0.014724733	0.042168314	-0.11181277	0.42605064	0.07552295	0.042566366	-0.1172131	0.067709916	-0.15290592	0.28486541	0.067586924	0.025130907	-0.1167679	0.09360733	-0.070374494	0.32803906	0.1051857	-0.043469664	-0.1870614	0.042977104	-0.11466334	0.2631238	0.036595364	-0.037075351	-0.021088564	0.44349634	-0.19768553	0.23137753	0.46590548	0.070740581	-0.03282487	0.42550863	-0.075606138	0.273622	0.4833547	-0.049607304	0.066453918	0.82956447	-0.26757787	0.078453277	0.85370152	0.11260108	0.13070686	0.93915806	-0.20358767	0.14703618	0.94772525	0.041172363	-0.049313765	0.95351777	-0.071201032	0.076944404	1.4162792	-0.22632928	0.034247689	1.4036583	0.097967444	-0.029987783	1.4376931	-0.080522298	0.061393898	1.0642576	-0.29572961	-0.066091456	1.0682899	0.12729678	0.23996448	0.91899024	-0.30895777	0.052762106	0.85759092	0.17613238
252	1.004	0.014758496	0.042145044	-0.11181937	0.44459828	0.077500261	0.041984193	-0.11717067	0.067816434	-0.15258465	0.30324833	0.067404564	0.026138647	-0.11647448	0.093587054	-0.070052855	0.34498635	0.1060077	-0.042796083	-0.18704718	0.043271038	-0.11425904	0.28156484	0.036206313	-0.035970032	-0.019159962	0.44312402	-0.19732906	0.23809783	0.46406425	0.071179671	-0.030694827	0.42522528	-0.075173171	0.27917746	0.48158788	-0.049647638	0.070262287	0.82874767	-0.26763705	0.085933254	0.85276319	0.11299681	0.13507685	0.93790291	-0.20393528	0.15379066	0.94656957	0.041032244	-0.044288663	0.95259472	-0.070204289	0.082768571	1.4150281	-0.22666099	0.040023269	1.4024436	0.097705585	-0.024182416	1.4365029	-0.080793696	0.069035471	1.0629069	-0.2959848	-0.062761493	1.0679603	0.12724946	0.25126212	0.91975959	-0.30791968	0.054056577	0.85609623	0.17654081
253	1.008	0.014796143	0.042129982	-0.11182051	0.46283728	0.079805664	0.041181797	-0.11713457	0.067923008	-0.15224281	0.32133167	0.067486529	0.02720758	-0.11614536	0.093597916	-0.069703134	0.36155211	0.10704106	-0.042098445	-0.18700074	0.043584567	-0.11384572	0.29960612	0.036072726	-0.034715915	-0.017118497	0.44273982	-0.19695583	0.24478623	0.46216609	0.071628446	-0.028237858	0.42488611	-0.074817837	0.28472782	0.47969245	-0.049685354	0.073973332	0.8279623	-0.26777575	0.093212655	0.85164722	0.11327272	0.13948058	0.93665587	-0.20421374	0.1605611	0.94536925	0.040879713	-0.039350623	0.95159334	-0.069175162	0.088577179	1.4137336	-0.22699043	0.045817355	1.4011876	0.097450252	-0.018365803	1.4352758	-0.081066759	0.076653748	1.0615333	-0.29616549	-0.059198574	1.0675702	0.1271986	0.26251139	0.92049607	-0.30686457	0.055352298	0.85462771	0.17695624
254	1.012	0.014844468	0.042107852	-0.11182996	0.48066194	0.082521865	0.040159575	-0.11709259	0.068009217	-0.15192435	0.33907943	0.06782772	0.028357574	-0.11578985	0.09363905	-0.069350743	0.37769958	0.10825098	-0.041400703	-0.18694014	0.043923953	-0.11341043	0.31721386	0.036148709	-0.033294171	-0.014964793	0.44234324	-0.1965703	0.25149508	0.4602701	0.072089255	-0.025453226	0.42449479	-0.074516329	0.29030134	0.47769444	-0.049728598	0.077650401	0.82721683	-0.26793287	0.10040285	0.85039394	0.11348018	0.14395025	0.93542595	-0.20441595	0.16733235	0.9441313	0.040711274	-0.034501766	0.95051173	-0.068110457	0.09440085	1.4123873	-0.22731452	0.051620429	1.3998953	0.097203203	-0.012534938	1.4340201	-0.081336646	0.084247536	1.0601387	-0.29626872	-0.055286351	1.0670874	0.12710043	0.27367337	0.92119936	-0.30580362	0.056665693	0.85318283	0.17737755
